<svg xmlns="http://www.w3.org/2000/svg" enable-background="new 0 0 520 520" viewBox="0 0 520 520">
    <g id="_x38_50_x2C__Game_x2C__Heart_x2C__Love_x2C__Valentine"><g>
    <g fill="#fb2b3a">
        <path d="m453.971 52.58c13.549 0 24.52 10.97 24.52 24.49 0 24.49-24.52 38.44-49.01 62.93-24.49-24.49-48.98-38.44-48.98-62.93 0-13.52 10.971-24.49 24.49-24.49 12.24 0 18.369 6.12 24.49 18.37 6.119-12.25 12.249-18.37 24.49-18.37z"/>
        <path d="m284.971 220c13.549 0 24.52 10.97 24.52 24.49 0 24.49-24.52 38.439-49.01 62.93-24.49-24.49-48.98-38.439-48.98-62.93 0-13.52 10.97-24.49 24.49-24.49 12.25 0 18.37 6.12 24.49 18.37 6.119-12.25 12.249-18.37 24.49-18.37z"/>
        <path d="m115.98 380c13.55 0 24.52 10.97 24.52 24.49 0 24.49-24.52 38.439-49.01 62.93-24.5-24.49-48.99-38.439-48.99-62.93 0-13.52 10.97-24.49 24.49-24.49 12.25 0 18.37 6.12 24.5 18.37 6.12-12.25 12.24-18.37 24.49-18.37z"/>
    </g>
        <path d="m260.48 317.42c-2.652 0-5.196-1.054-7.071-2.929-5.808-5.809-11.625-11.012-17.25-16.044-18.597-16.634-34.658-31-34.658-53.957 0-19.018 15.472-34.49 34.49-34.49 11.376 0 18.928 4.167 24.49 10.192 5.562-6.026 13.114-10.192 24.491-10.192 19.033 0 34.52 15.472 34.52 34.49 0 22.949-16.063 37.309-34.66 53.937-5.635 5.038-11.463 10.247-17.279 16.064-1.877 1.875-4.421 2.929-7.073 2.929zm-24.49-87.42c-7.99 0-14.49 6.5-14.49 14.49 0 13.362 10.115 23.06 27.992 39.051 3.59 3.211 7.254 6.488 10.989 9.981 3.744-3.502 7.42-6.787 11.02-10.006 17.877-15.981 27.99-25.674 27.99-39.026 0-7.99-6.514-14.49-14.52-14.49-6.439 0-10.021 1.784-15.545 12.839-1.693 3.39-5.156 5.531-8.946 5.531-3.789 0-7.252-2.141-8.946-5.531-5.523-11.055-9.106-12.839-15.544-12.839z"/>
        <path d="m170.5 500c-5.523 0-10-4.478-10-10v-460c0-5.523 4.477-10 10-10s10 4.477 10 10v460c0 5.522-4.477 10-10 10z"/>
        <path d="m349.5 500c-5.523 0-10-4.478-10-10v-460c0-5.523 4.477-10 10-10s10 4.477 10 10v460c0 5.522-4.477 10-10 10z"/>
        <path d="m490 180.5h-460c-5.523 0-10-4.477-10-10s4.477-10 10-10h460c5.523 0 10 4.477 10 10s-4.477 10-10 10z"/>
        <path d="m490 359.5h-460c-5.523 0-10-4.478-10-10s4.477-10 10-10h460c5.523 0 10 4.478 10 10s-4.477 10-10 10z"/>
        <path d="m429.48 150c-2.652 0-5.196-1.054-7.072-2.929-5.808-5.808-11.625-11.011-17.25-16.042-18.597-16.636-34.658-31.002-34.658-53.959 0-19.018 15.473-34.49 34.49-34.49 11.377 0 18.928 4.167 24.49 10.192 5.562-6.026 13.113-10.192 24.49-10.192 19.033 0 34.52 15.472 34.52 34.49 0 22.949-16.063 37.31-34.66 53.937-5.636 5.038-11.463 10.248-17.279 16.064-1.875 1.875-4.419 2.929-7.071 2.929zm-24.49-87.42c-7.99 0-14.49 6.5-14.49 14.49 0 13.362 10.115 23.061 27.992 39.052 3.59 3.21 7.254 6.488 10.988 9.981 3.744-3.501 7.42-6.788 11.02-10.005 17.876-15.982 27.99-25.675 27.99-39.027 0-7.99-6.514-14.49-14.52-14.49-6.439 0-10.021 1.784-15.545 12.839-1.693 3.39-5.156 5.531-8.945 5.531s-7.253-2.141-8.946-5.531c-5.522-11.056-9.106-12.84-15.544-12.84z"/>
        <path d="m91.49 477.42c-2.559 0-5.117-.976-7.07-2.928-5.808-5.806-11.624-11.006-17.248-16.035-18.604-16.638-34.672-31.006-34.672-53.967 0-19.018 15.472-34.49 34.49-34.49 11.376 0 18.93 4.169 24.495 10.197 5.562-6.028 13.115-10.197 24.495-10.197 19.034 0 34.52 15.473 34.52 34.49 0 22.949-16.062 37.309-34.659 53.936-5.635 5.038-11.462 10.248-17.279 16.065-1.953 1.952-4.513 2.929-7.072 2.929zm-24.5-87.42c-7.99 0-14.49 6.5-14.49 14.49 0 13.364 10.119 23.064 28.004 39.058 3.588 3.209 7.251 6.485 10.985 9.976 3.745-3.502 7.421-6.788 11.021-10.007 17.875-15.982 27.989-25.675 27.989-39.026 0-7.99-6.514-14.49-14.52-14.49-6.438 0-10.021 1.784-15.544 12.839-1.693 3.389-5.155 5.53-8.942 5.531-.001 0-.002 0-.003 0-3.787 0-7.248-2.139-8.943-5.524-5.535-11.062-9.119-12.847-15.557-12.847z"/>
        <path d="m220.5 140c-2.559 0-5.119-.976-7.071-2.929-3.905-3.905-3.905-10.237 0-14.143l80-80c3.905-3.905 10.237-3.905 14.143 0s3.905 10.237 0 14.143l-80 80c-1.953 1.953-4.513 2.929-7.072 2.929z"/>
        <path d="m300.5 140c-2.559 0-5.119-.976-7.071-2.929l-80-80c-3.905-3.905-3.905-10.237 0-14.143s10.237-3.905 14.143 0l80 80c3.905 3.905 3.905 10.237 0 14.143-1.953 1.953-4.513 2.929-7.072 2.929z"/>
        <path d="m390.5 310c-2.559 0-5.119-.977-7.071-2.929-3.905-3.905-3.905-10.237 0-14.143l80-80c3.905-3.905 10.237-3.905 14.143 0s3.905 10.237 0 14.143l-80 80c-1.953 1.952-4.513 2.929-7.072 2.929z"/>
        <path d="m470.5 310c-2.559 0-5.119-.977-7.071-2.929l-80-80c-3.905-3.905-3.905-10.237 0-14.143s10.237-3.905 14.143 0l80 80c3.905 3.905 3.905 10.237 0 14.143-1.953 1.952-4.513 2.929-7.072 2.929z"/>
        <path d="m220.5 480c-2.559 0-5.119-.977-7.071-2.929-3.905-3.905-3.905-10.237 0-14.143l80-80c3.905-3.904 10.237-3.904 14.143 0 3.905 3.905 3.905 10.237 0 14.143l-80 80c-1.953 1.952-4.513 2.929-7.072 2.929z"/>
        <path d="m300.5 480c-2.559 0-5.119-.977-7.071-2.929l-80-80c-3.905-3.905-3.905-10.237 0-14.143 3.905-3.904 10.237-3.904 14.143 0l80 80c3.905 3.905 3.905 10.237 0 14.143-1.953 1.952-4.513 2.929-7.072 2.929z"/>
    </g>
    </g>
</svg>